<svg width="238" height="238" viewBox="0 0 238 238" fill="none" xmlns="http://www.w3.org/2000/svg">
<path d="M119 218.167C105.447 218.167 92.6382 215.564 80.5729 210.357C68.5076 205.151 57.9712 198.044 48.9635 189.036C39.9559 180.029 32.849 169.492 27.6427 157.427C22.4365 145.362 19.8333 132.553 19.8333 119C19.8333 105.282 22.4365 92.4316 27.6427 80.4489C32.849 68.4663 39.9559 57.9712 48.9635 48.9635C57.9712 39.9559 68.5076 32.8489 80.5729 27.6427C92.6382 22.4364 105.447 19.8333 119 19.8333C132.718 19.8333 145.568 22.4364 157.551 27.6427C169.534 32.8489 180.029 39.9559 189.036 48.9635C198.044 57.9712 205.151 68.4663 210.357 80.4489C215.564 92.4316 218.167 105.282 218.167 119C218.167 132.553 215.564 145.362 210.357 157.427C205.151 169.492 198.044 180.029 189.036 189.036C180.029 198.044 169.534 205.151 157.551 210.357C145.568 215.564 132.718 218.167 119 218.167ZM119 197.837C123.297 191.887 127.016 185.69 130.156 179.244C133.297 172.798 135.858 165.939 137.842 158.667H100.158C102.142 165.939 104.703 172.798 107.844 179.244C110.984 185.69 114.703 191.887 119 197.837ZM93.2167 193.871C90.2417 188.417 87.6385 182.756 85.4073 176.889C83.176 171.021 81.3167 164.947 79.8292 158.667H50.575C55.3681 166.931 61.3594 174.12 68.549 180.235C75.7385 186.351 83.9611 190.896 93.2167 193.871ZM144.783 193.871C154.039 190.896 162.261 186.351 169.451 180.235C176.641 174.12 182.632 166.931 187.425 158.667H158.171C156.683 164.947 154.824 171.021 152.593 176.889C150.361 182.756 147.758 188.417 144.783 193.871ZM42.1458 138.833H75.8625C75.3667 135.528 74.9948 132.264 74.7469 129.041C74.499 125.818 74.375 122.471 74.375 119C74.375 115.529 74.499 112.182 74.7469 108.959C74.9948 105.736 75.3667 102.472 75.8625 99.1666H42.1458C41.3194 102.472 40.6996 105.736 40.2865 108.959C39.8733 112.182 39.6667 115.529 39.6667 119C39.6667 122.471 39.8733 125.818 40.2865 129.041C40.6996 132.264 41.3194 135.528 42.1458 138.833ZM95.6958 138.833H142.304C142.8 135.528 143.172 132.264 143.42 129.041C143.668 125.818 143.792 122.471 143.792 119C143.792 115.529 143.668 112.182 143.42 108.959C143.172 105.736 142.8 102.472 142.304 99.1666H95.6958C95.2 102.472 94.8281 105.736 94.5802 108.959C94.3323 112.182 94.2083 115.529 94.2083 119C94.2083 122.471 94.3323 125.818 94.5802 129.041C94.8281 132.264 95.2 135.528 95.6958 138.833ZM162.137 138.833H195.854C196.681 135.528 197.3 132.264 197.714 129.041C198.127 125.818 198.333 122.471 198.333 119C198.333 115.529 198.127 112.182 197.714 108.959C197.3 105.736 196.681 102.472 195.854 99.1666H162.137C162.633 102.472 163.005 105.736 163.253 108.959C163.501 112.182 163.625 115.529 163.625 119C163.625 122.471 163.501 125.818 163.253 129.041C163.005 132.264 162.633 135.528 162.137 138.833ZM158.171 79.3333H187.425C182.632 71.0694 176.641 63.8798 169.451 57.7646C162.261 51.6493 154.039 47.1041 144.783 44.1291C147.758 49.5833 150.361 55.2441 152.593 61.1114C154.824 66.9788 156.683 73.0528 158.171 79.3333ZM100.158 79.3333H137.842C135.858 72.0611 133.297 65.2021 130.156 58.7562C127.016 52.3104 123.297 46.1125 119 40.1625C114.703 46.1125 110.984 52.3104 107.844 58.7562C104.703 65.2021 102.142 72.0611 100.158 79.3333ZM50.575 79.3333H79.8292C81.3167 73.0528 83.176 66.9788 85.4073 61.1114C87.6385 55.2441 90.2417 49.5833 93.2167 44.1291C83.9611 47.1041 75.7385 51.6493 68.549 57.7646C61.3594 63.8798 55.3681 71.0694 50.575 79.3333Z" fill="white" fill-opacity="0.15"/>
</svg>
