<svg width="161" height="121" viewBox="0 0 161 121" fill="none" xmlns="http://www.w3.org/2000/svg">
<circle cx="5.5" cy="5.5" r="5.5" fill="white"/>
<circle cx="155.5" cy="112.5" r="5.5" fill="white"/>
<line x1="6" y1="23" x2="6" y2="114" stroke="white" stroke-width="2"/>
<path d="M137.707 113.707C138.098 113.317 138.098 112.683 137.707 112.293L131.343 105.929C130.953 105.538 130.319 105.538 129.929 105.929C129.538 106.319 129.538 106.953 129.929 107.343L135.586 113L129.929 118.657C129.538 119.047 129.538 119.681 129.929 120.071C130.319 120.462 130.953 120.462 131.343 120.071L137.707 113.707ZM6 113V114H137V113V112H6V113Z" fill="white"/>
</svg>
