<svg width="25" height="25" viewBox="0 0 25 25" fill="none" xmlns="http://www.w3.org/2000/svg">
<path d="M18.2292 6.77083H18.2396M7.29171 2.08333H17.7084C20.5849 2.08333 22.9167 4.41518 22.9167 7.29167V17.7083C22.9167 20.5848 20.5849 22.9167 17.7084 22.9167H7.29171C4.41522 22.9167 2.08337 20.5848 2.08337 17.7083V7.29167C2.08337 4.41518 4.41522 2.08333 7.29171 2.08333ZM16.6667 11.8438C16.7953 12.7107 16.6472 13.5961 16.2435 14.374C15.8399 15.1519 15.2012 15.7827 14.4184 16.1767C13.6356 16.5708 12.7484 16.7079 11.8832 16.5687C11.0179 16.4294 10.2185 16.0209 9.59883 15.4012C8.97912 14.7815 8.57059 13.9822 8.43136 13.1169C8.29213 12.2516 8.42928 11.3645 8.8233 10.5816C9.21732 9.79881 9.84815 9.16015 10.6261 8.7565C11.404 8.35286 12.2894 8.20478 13.1563 8.33333C14.0406 8.46446 14.8593 8.87652 15.4914 9.50865C16.1235 10.1408 16.5356 10.9595 16.6667 11.8438Z" stroke="white" stroke-linecap="round" stroke-linejoin="round"/>
</svg>
