<svg width="25" height="25" viewBox="0 0 25 25" fill="none" xmlns="http://www.w3.org/2000/svg">
<path d="M18.2292 6.77075H18.2396M7.29171 2.08325H17.7084C20.5849 2.08325 22.9167 4.4151 22.9167 7.29159V17.7083C22.9167 20.5847 20.5849 22.9166 17.7084 22.9166H7.29171C4.41522 22.9166 2.08337 20.5847 2.08337 17.7083V7.29159C2.08337 4.4151 4.41522 2.08325 7.29171 2.08325ZM16.6667 11.8437C16.7953 12.7106 16.6472 13.596 16.2435 14.3739C15.8399 15.1518 15.2012 15.7826 14.4184 16.1767C13.6356 16.5707 12.7484 16.7078 11.8832 16.5686C11.0179 16.4294 10.2185 16.0208 9.59883 15.4011C8.97912 14.7814 8.57059 13.9821 8.43136 13.1168C8.29213 12.2515 8.42928 11.3644 8.8233 10.5816C9.21732 9.79872 9.84815 9.16006 10.6261 8.75642C11.404 8.35277 12.2894 8.2047 13.1563 8.33325C14.0406 8.46438 14.8593 8.87644 15.4914 9.50857C16.1235 10.1407 16.5356 10.9594 16.6667 11.8437Z" stroke="black" stroke-linecap="round" stroke-linejoin="round"/>
</svg>
